<?xml version="1.0" encoding="UTF-8" standalone="no"?>
<!-- Created with Inkscape (http://www.inkscape.org/) -->

<svg
   xmlns:dc="http://purl.org/dc/elements/1.1/"
   xmlns:cc="http://creativecommons.org/ns#"
   xmlns:rdf="http://www.w3.org/1999/02/22-rdf-syntax-ns#"
   xmlns:svg="http://www.w3.org/2000/svg"
   xmlns="http://www.w3.org/2000/svg"
   xmlns:sodipodi="http://sodipodi.sourceforge.net/DTD/sodipodi-0.dtd"
   xmlns:inkscape="http://www.inkscape.org/namespaces/inkscape"
   width="128"
   height="128"
   id="svg2"
   version="1.1"
   inkscape:version="0.48.2 r9819"
   sodipodi:docname="icon.svg"
   inkscape:export-filename="C:\DelovnaMapa\Share\FxKeyboard\icon.png"
   inkscape:export-xdpi="90"
   inkscape:export-ydpi="90">
  <defs
     id="defs4" />
  <sodipodi:namedview
     id="base"
     pagecolor="#ffffff"
     bordercolor="#666666"
     borderopacity="1.0"
     inkscape:pageopacity="0.0"
     inkscape:pageshadow="2"
     inkscape:zoom="1.979899"
     inkscape:cx="137.38277"
     inkscape:cy="82.093507"
     inkscape:document-units="px"
     inkscape:current-layer="layer1"
     showgrid="false"
     fit-margin-top="0"
     fit-margin-left="0"
     fit-margin-right="0"
     fit-margin-bottom="0"
     inkscape:window-width="1366"
     inkscape:window-height="716"
     inkscape:window-x="-8"
     inkscape:window-y="-8"
     inkscape:window-maximized="1" />
  <metadata
     id="metadata7">
    <rdf:RDF>
      <cc:Work
         rdf:about="">
        <dc:format>image/svg+xml</dc:format>
        <dc:type
           rdf:resource="http://purl.org/dc/dcmitype/StillImage" />
        <dc:title></dc:title>
      </cc:Work>
    </rdf:RDF>
  </metadata>
  <g
     inkscape:label="Layer 1"
     inkscape:groupmode="layer"
     id="layer1"
     transform="translate(-266.40354,-245.1312)">
    <path
       inkscape:connector-curvature="0"
       id="path3038"
       d="m 316.90354,362.25656 c -4.26259,-2.65299 -41.29352,-35.87104 -42.49859,-38.12273 -0.55078,-1.02913 -1.00141,-4.07659 -1.00141,-6.77212 0,-6.50906 5.53343,-34.87613 7.33263,-37.59067 0.96111,-1.45006 5.19605,-3.40331 13.13764,-6.05936 6.44565,-2.15574 17.57202,-6.76824 24.72529,-10.25 7.72468,-3.7599 14.30998,-6.33048 16.21736,-6.33048 4.28171,0 40.98695,22.9388 43.03138,26.89229 2.21892,4.29091 11.55606,34.92197 11.55196,37.89689 -0.009,6.70391 -3.11281,8.92647 -52.47535,37.5793 -9.07432,5.26725 -14.73506,6.04673 -20.02091,2.75688 z m 18.91058,-49.17779 c 5.72103,-2.14051 18.3596,-8.50419 20.08827,-10.1147 0.54937,-0.51182 -2.0484,0.21641 -5.77282,1.61827 -8.21631,3.09261 -9.44445,3.12358 -16.84606,0.42483 -5.57551,-2.03294 -6.03832,-2.05439 -10.79056,-0.5 -2.73086,0.89321 -5.83631,1.62403 -6.901,1.62403 -2.06763,0 -14.64114,-8.21285 -24.98062,-16.31702 -3.46072,-2.71254 -6.4356,-4.76338 -6.61084,-4.55744 -0.17525,0.20596 -0.61157,2.28696 -0.96961,4.62446 l -0.65098,4.25 3.82184,0 c 5.16752,0 15.98464,5.49921 24.7018,12.5579 11.18844,9.05981 15.09547,10.06198 24.91058,6.38967 z m 30.55955,-14.92841 c 4.49048,-2.88153 10.07253,-8.01916 8.71284,-8.01916 -0.36612,0 -2.80706,1.64053 -5.42432,3.64563 -2.61726,2.0051 -6.22115,4.26114 -8.00865,5.01342 -1.7875,0.75229 -3.25,1.58675 -3.25,1.85437 0,1.35812 3.83895,0.15672 7.97013,-2.49426 z"
       style="fill:#ccd1d1" />
    <path
       inkscape:connector-curvature="0"
       id="path3030"
       d="m 319.90354,360.74852 c -3.69955,-1.7047 -41.9527,-35.74871 -42.87798,-38.15994 -0.368,-0.959 -0.49748,-1.91526 -0.28772,-2.12501 0.20976,-0.20976 4.60785,3.36976 9.77354,7.95449 14.59758,12.95588 23.13223,19.71314 24.89833,19.71314 1.30779,0 1.86779,-2.05589 2.92822,-10.75 0.72115,-5.9125 1.69689,-11.76803 2.16832,-13.01229 1.07758,-2.84413 5.08623,-4.79098 7.30645,-3.54848 1.57664,0.88233 11.89096,0.11598 16.20293,-1.20388 1.51185,-0.46276 2.31127,-0.12745 2.81294,1.17987 0.59088,1.53982 4.57497,20.61852 4.57497,21.90829 0,2.03409 12.81233,-3.91436 29,-13.464 7.75064,-4.57235 11.01168,-5.23836 8.02434,-1.63884 -0.98174,1.18292 -17.04816,10.89952 -49.04859,29.66344 -7.72114,4.52741 -11.40851,5.35734 -15.47575,3.48321 z m 0.42931,-95.22154 c 9.59103,-5.07284 13.06437,-6.44704 15.21032,-6.01785 2.63002,0.526 20.24615,11.56962 19.55603,12.25974 -0.17832,0.17832 -3.60642,-1.05481 -7.618,-2.74029 l -7.29377,-3.06452 -2.83737,2.71838 -2.83738,2.71838 -3.13111,-2.63465 c -3.48299,-2.93074 -3.76616,-2.91193 -15.40318,1.02323 -3.80884,1.28799 -7.18384,2.33501 -7.5,2.32672 -0.31617,-0.008 5.01834,-2.97341 11.85446,-6.58914 z"
       style="fill:#7b8487" />
    <g
       transform="matrix(0.66149336,0.46480147,-0.70570286,0.43568349,344.94865,277.08969)"
       style="font-size:40px;font-style:normal;font-variant:normal;font-weight:normal;font-stretch:normal;text-align:start;line-height:125%;letter-spacing:0px;word-spacing:0px;writing-mode:lr-tb;text-anchor:start;fill:#000000;fill-opacity:1;stroke:none;font-family:Segoe Script;-inkscape-font-specification:Segoe Script"
       id="text3058">
      <path
         d="m -2.463728,7.6735497 c -0.1692946,0.117213 -0.4166902,0.1823171 -0.7421875,0.1953125 -0.3255437,0.013046 -0.6705954,2.54e-5 -1.0351562,-0.039063 -0.3646052,-0.039037 -0.7129121,-0.078099 -1.0449219,-0.1171875 -0.332052,-0.039037 -0.5957236,-0.045547 -0.7910156,-0.019531 -0.2864784,-0.012995 -0.7194207,0.00328 -1.2988281,0.048828 -0.5794456,0.045599 -1.2337418,0.1139578 -1.9628907,0.2050782 -0.729183,0.091171 -1.484391,0.1985929 -2.265625,0.3222656 -0.781264,0.1237229 -1.51043,0.2571863 -2.1875,0.4003906 -0.677095,0.1432537 -1.256522,0.2897379 -1.738281,0.4394531 -0.481781,0.1497637 -0.787771,0.2897375 -0.917969,0.4199219 -0.05209,0.065128 -0.139984,0.2767163 -0.263672,0.6347659 -0.123707,0.358096 -0.257171,0.820335 -0.40039,1.386719 -0.143239,0.566427 -0.286468,1.210958 -0.429688,1.933594 -0.143238,0.722675 -0.270191,1.474627 -0.380859,2.255859 -0.110686,0.781267 -0.198576,1.569026 -0.263672,2.363281 -0.06511,0.794285 -0.07813,1.549493 -0.03906,2.265625 0.898429,-0.260403 1.806631,-0.485012 2.72461,-0.673828 0.917957,-0.188788 1.930325,-0.393866 3.037109,-0.615234 0.507798,-0.09113 1.054673,-0.22785 1.640625,-0.410157 0.585921,-0.182276 1.1686031,-0.361313 1.7480469,-0.537109 0.5794092,-0.175766 1.1295388,-0.32876 1.6503906,-0.458984 0.5208139,-0.130193 0.9765426,-0.195297 1.3671875,-0.195313 0.3515418,1.6e-5 0.6445103,0.03257 0.8789063,0.09766 0.2343535,0.06512 0.4296658,0.166032 0.5859375,0.302735 0.156228,0.136734 0.2799258,0.312515 0.3710937,0.527344 0.091124,0.214858 0.1757589,0.472019 0.2539063,0.771484 0.012998,0.09116 -0.019554,0.198582 -0.097656,0.322266 -0.078147,0.123711 -0.1790586,0.253919 -0.3027343,0.390625 -0.1237199,0.136732 -0.2474177,0.263685 -0.3710938,0.380859 -0.1237195,0.1172 -0.2181204,0.214857 -0.2832031,0.292969 -0.1432504,0.143241 -0.4004116,0.276705 -0.7714844,0.40039 -0.371114,0.12371 -0.7649938,0.231132 -1.1816406,0.322266 -0.4166857,0.09116 -0.8235863,0.169283 -1.2207031,0.234375 -0.3971533,0.06512 -0.6933769,0.117199 -0.8886719,0.15625 -0.6640792,0.13022 -1.3574386,0.263683 -2.0800786,0.400391 -0.722671,0.136729 -1.432305,0.279958 -2.128906,0.429687 -0.696627,0.14975 -1.360689,0.296235 -1.992188,0.439453 -0.631521,0.14324 -1.194671,0.286469 -1.689453,0.429688 -0.4948,0.143239 -0.895191,0.279957 -1.201172,0.410156 -0.305997,0.130218 -0.485033,0.253915 -0.537109,0.371094 -0.104174,0.234384 -0.18881,0.537118 -0.253906,0.908203 -0.06511,0.371101 -0.12045,0.781257 -0.166016,1.230469 -0.04558,0.449225 -0.07488,0.92123 -0.08789,1.416015 -0.01303,0.494797 -0.02279,0.983078 -0.0293,1.464844 -0.0065,0.481774 -0.0033,0.944014 0.0098,1.386719 0.01301,0.44271 0.02604,0.826825 0.03906,1.152343 -7e-6,0.44271 0.0098,0.872397 0.0293,1.289063 0.01952,0.416667 -0.01628,0.826822 -0.107422,1.230469 -0.09115,0.286457 -0.250658,0.507811 -0.478516,0.664062 -0.227871,0.156248 -0.589199,0.214842 -1.083984,0.175781 -0.06511,-0.01302 -0.214849,-0.06185 -0.449219,-0.146484 -0.23438,-0.08464 -0.47852,-0.221355 -0.732422,-0.410156 -0.25391,-0.188803 -0.481775,-0.423178 -0.683594,-0.703125 -0.201826,-0.279948 -0.302737,-0.621745 -0.302734,-1.025391 -0.01302,-1.575519 0.06185,-3.063147 0.224609,-4.46289 0.162757,-1.399734 0.328772,-2.789706 0.498047,-4.169922 0.130204,-1.106761 0.279944,-2.259103 0.449219,-3.457032 0.169266,-1.197902 0.341792,-2.402328 0.517578,-3.613281 0.175776,-1.21092 0.354812,-2.412091 0.53711,-3.603515 0.182285,-1.191386 0.351556,-2.340473 0.507812,-3.447266 0.02604,-0.2083102 0.01952,-0.4198985 -0.01953,-0.634766 -0.03907,-0.2148196 -0.09115,-0.4296631 -0.15625,-0.6445313 -0.06511,-0.2148189 -0.13347,-0.4296624 -0.205078,-0.6445312 -0.07162,-0.2148183 -0.126959,-0.4264066 -0.166016,-0.6347656 -0.02605,-0.1952865 0.01953,-0.4036196 0.136719,-0.625 0.117181,-0.2213275 0.266921,-0.4264054 0.449219,-0.6152344 0.182285,-0.1887748 0.377597,-0.3450246 0.585937,-0.46875 0.208326,-0.1236702 0.403639,-0.1790087 0.585938,-0.1660156 0.260409,0.026069 0.498039,0.058621 0.71289,0.097656 0.214836,0.03909 0.419914,0.071642 0.615235,0.097656 0.195303,0.026069 0.390615,0.048856 0.585937,0.068359 0.195303,0.019559 0.403636,0.029324 0.625,0.029297 0.377594,2.75e-5 0.810536,-0.032525 1.298828,-0.097656 0.48827,-0.065077 0.996082,-0.1464567 1.523438,-0.2441407 0.52733,-0.097628 1.061184,-0.2017949 1.601562,-0.3125 0.54035,-0.1106488 1.044907,-0.2115602 1.513672,-0.3027343 1.4452956,-0.260388 2.7734192,-0.4784868 3.9843753,-0.6542969 1.2109165,-0.175752 2.3241967,-0.2636426 3.3398438,-0.2636719 0.1562267,2.93e-5 0.3482838,0.039092 0.5761719,0.1171875 0.2278406,0.078154 0.4524497,0.1758103 0.6738281,0.2929688 0.2213295,0.1172163 0.4133866,0.2506797 0.5761719,0.4003906 0.1627352,0.1497679 0.2506258,0.3027626 0.2636718,0.4589844 0.026016,0.3385693 -0.042343,0.7259388 -0.2050781,1.1621093 -0.1627853,0.4362244 -0.524113,0.843125 -1.0839844,1.2207032 z"
         id="path3076"
         inkscape:connector-curvature="0" />
      <path
         d="m 30.524553,19.157925 c -3.3e-5,0.351576 -0.26696,1.002617 -0.800781,1.953125 -0.260449,0.455741 -0.5111,0.869152 -0.751953,1.240234 -0.240917,0.371104 -0.465527,0.69337 -0.673828,0.966797 -1.666697,2.135424 -3.046904,3.8086 -4.140625,5.019531 -1.080756,1.197921 -2.291692,2.220055 -3.632813,3.066406 -1.328147,0.820314 -2.740906,1.23047 -4.238281,1.230469 -1.054706,10e-7 -2.197283,-0.387369 -3.427734,-1.162109 C 11.628054,30.697641 10.244592,29.607147 8.708147,28.200893 8.1612607,28.630586 7.67298,29.076549 7.2433033,29.538784 6.8136058,30.001027 6.4327468,30.450245 6.1007252,30.88644 5.768685,31.32264 5.4887374,31.745817 5.2608814,32.155972 5.0330087,32.566129 4.8539724,32.933967 4.723772,33.259487 4.593556,33.585008 4.4568374,33.939825 4.3136158,34.32394 4.1703793,34.708054 4.0206399,35.127975 3.864397,35.583706 3.577932,36.48214 3.2914739,37.126671 3.005022,37.5173 2.1456418,37.478233 1.4848351,37.250369 1.0226002,36.833706 c -0.46224332,-0.41667 -0.69336288,-1.041669 -0.6933594,-1.875 -3.48e-6,-0.351564 0.0520798,-0.709636 0.15625,-1.074219 0.10416293,-0.364583 0.25064716,-0.729166 0.43945312,-1.09375 C 1.1137417,32.426155 1.3285853,32.064827 1.5694752,31.706753 1.8103556,31.348682 2.0675168,31.006885 2.3409595,30.681362 2.6925162,30.264699 3.2166042,29.672251 3.9132252,28.904018 4.609832,28.135794 5.4659509,27.289441 6.4815845,26.364956 6.2472002,26.117567 5.9835285,25.818088 5.6905689,25.466518 5.3975916,25.114964 5.1078784,24.747126 4.8214283,24.363003 4.5349623,23.978898 4.2680355,23.601294 4.020647,23.23019 3.7732443,22.859107 3.5714216,22.536842 3.4151783,22.263393 2.8422556,21.23476 2.4386102,20.378641 2.2042408,19.695034 1.9698607,19.011455 1.8526733,18.38971 1.8526783,17.8298 c -5e-6,-0.286443 0.048823,-0.55988 0.1464844,-0.820313 0.097651,-0.2604 0.2473904,-0.491519 0.4492187,-0.693359 0.2018171,-0.201806 0.4524679,-0.364566 0.7519531,-0.488281 0.2994726,-0.123681 0.6510347,-0.18553 1.0546875,-0.185547 0.3515548,1.7e-5 0.624992,0.110694 0.8203125,0.332031 0.1953041,0.221371 0.3385332,0.475277 0.4296875,0.761719 0.039054,0.156266 0.074861,0.341813 0.1074219,0.55664 0.032543,0.21486 0.06184,0.436214 0.087891,0.664063 0.026033,0.22788 0.05533,0.452489 0.087891,0.673828 0.032543,0.221369 0.06835,0.41017 0.1074218,0.566406 0.2473866,1.067722 0.5859279,1.959648 1.015625,2.675781 0.4426979,0.716157 1.0742077,1.464854 1.8945313,2.246094 1.093737,-1.028635 2.070299,-2.044259 2.929688,-3.046875 0.442693,-0.494779 0.839828,-1.044908 1.191406,-1.65039 0.351546,-0.605455 0.670556,-1.266261 0.957031,-1.982422 0.156233,-0.338526 0.292952,-0.615218 0.410157,-0.830078 0.117169,-0.214827 0.237612,-0.387353 0.361328,-0.517579 0.12368,-0.130191 0.257143,-0.218081 0.40039,-0.263671 0.143211,-0.04556 0.312482,-0.06834 0.507813,-0.06836 0.221335,1.8e-5 0.45571,0.0521 0.703125,0.15625 0.247376,0.104184 0.471985,0.244158 0.673828,0.419922 0.201803,0.175798 0.371073,0.384131 0.507812,0.625 0.136698,0.240902 0.205058,0.504573 0.205079,0.791016 -2.1e-5,0.377619 -0.240906,0.924493 -0.722657,1.640625 -0.390644,0.507826 -0.778014,0.963554 -1.162109,1.367187 -0.384133,0.403658 -0.797544,0.872408 -1.240234,1.40625 -0.455747,0.585948 -0.966814,1.197927 -1.533204,1.835938 -0.566421,0.638029 -1.201186,1.328133 -1.904296,2.070312 0.351547,0.35157 0.791,0.725918 1.318359,1.123047 0.527328,0.397141 1.087223,0.768235 1.679687,1.113281 0.592431,0.345057 1.184878,0.631515 1.777344,0.859375 0.592428,0.227869 1.136048,0.341801 1.63086,0.341797 1.028624,4e-6 2.054013,-0.358069 3.076171,-1.074219 1.022111,-0.71614 2.158178,-1.744785 3.408204,-3.085937 0.559868,-0.59895 1.139294,-1.256501 1.738281,-1.972656 0.598929,-0.716135 1.223928,-1.490874 1.875,-2.324219 1.28903,-1.666653 2.018196,-2.499985 2.1875,-2.5 0.221321,1.5e-5 0.400357,0.05535 0.537109,0.166016 0.136685,0.110691 0.205045,0.257175 0.205078,0.439453 z"
         id="path3078"
         inkscape:connector-curvature="0" />
    </g>
  </g>
</svg>
