<svg width="40" height="26" viewBox="0 0 40 26" xmlns="http://www.w3.org/2000/svg"><title>FxKeyboard Toggle</title><path d="M0 2.04C0 .913.91 0 2.04 0h35.92C39.088 0 40 .91 40 2.04v21.92c0 1.127-.91 2.04-2.04 2.04H2.04C.912 26 0 25.09 0 23.96V2.04zM10 22h19v-4H10v4zm-7 0h5v-4H3v4zm28 0h6v-4h-6v4zM3 8h4V4H3v4zm6 0h4V4H9v4zm6 0h4V4h-4v4zm6 0h4V4h-4v4zm6 0h4V4h-4v4zm3 7h4v-4h-4v4zm-6 0h4v-4h-4v4zm-6 0h4v-4h-4v4zm-6 0h4v-4h-4v4zm21-7h4V4h-4v4zM6 15h4v-4H6v4z" fill="#575757" fill-rule="evenodd"/></svg>
